<svg width="124" height="32" viewBox="0 0 124 32" fill="none" xmlns="http://www.w3.org/2000/svg">
<path d="M45.8687 19.4935H41.1391L40.0033 22.9318H38L42.4798 10.2109H44.5612L49.041 22.9318H47.0035L45.8687 19.4935ZM41.6289 17.9069H45.3779L43.5298 12.3268H43.4781L41.6289 17.9069Z" fill="#333333"/>
<path d="M58.713 18.2951C58.713 21.1772 57.2083 23.0289 54.9376 23.0289C54.3625 23.0597 53.7904 22.9239 53.287 22.6369C52.7836 22.3499 52.3692 21.9234 52.0913 21.4062H52.0483V26H50.1914V13.6573H51.9888V15.1999H52.023C52.3137 14.6852 52.7351 14.2609 53.2423 13.9722C53.7495 13.6835 54.3236 13.5411 54.9035 13.5603C57.1995 13.5603 58.713 15.421 58.713 18.2951ZM56.8043 18.2951C56.8043 16.4174 55.8578 15.1829 54.4136 15.1829C52.9949 15.1829 52.0405 16.4434 52.0405 18.2951C52.0405 20.1638 52.9949 21.4153 54.4136 21.4153C55.8578 21.4153 56.8043 20.1898 56.8043 18.2951Z" fill="#333333"/>
<path d="M68.6739 18.2951C68.6739 21.1772 67.1692 23.0289 64.8986 23.0289C64.3234 23.0597 63.7513 22.9239 63.248 22.6369C62.7446 22.3499 62.3302 21.9234 62.0522 21.4062H62.0093V26H60.1523V13.6573H61.9497V15.1999H61.9839C62.2746 14.6852 62.696 14.2609 63.2032 13.9722C63.7105 13.6835 64.2845 13.5411 64.8644 13.5603C67.1604 13.5603 68.6739 15.421 68.6739 18.2951ZM66.7653 18.2951C66.7653 16.4174 65.8187 15.1829 64.3746 15.1829C62.9558 15.1829 62.0015 16.4434 62.0015 18.2951C62.0015 20.1638 62.9558 21.4153 64.3746 21.4153C65.8187 21.4153 66.7653 20.1898 66.7653 18.2951H66.7653Z" fill="#333333"/>
<path d="M75.2524 19.3886C75.39 20.6501 76.5854 21.4783 78.2188 21.4783C79.784 21.4783 80.91 20.65 80.91 19.5126C80.91 18.5252 80.2309 17.934 78.6228 17.5288L77.0147 17.1317C74.7362 16.5675 73.6785 15.4751 73.6785 13.7024C73.6785 11.5076 75.5442 10 78.1934 10C80.8153 10 82.6127 11.5076 82.6733 13.7024H80.7987C80.6865 12.4329 79.6629 11.6666 78.1671 11.6666C76.6712 11.6666 75.6476 12.4419 75.6476 13.5704C75.6476 14.4697 76.3014 14.9989 77.9007 15.404L79.2677 15.7481C81.8136 16.3654 82.8713 17.4138 82.8713 19.2745C82.8713 21.6544 81.0222 23.1449 78.0812 23.1449C75.3295 23.1449 73.4716 21.6894 73.3516 19.3885L75.2524 19.3886Z" fill="#333333"/>
<path d="M86.8803 11.4648V13.6597H88.6006V15.1672H86.8803V20.2802C86.8803 21.0745 87.2247 21.4446 87.9809 21.4446C88.1852 21.441 88.3891 21.4262 88.5918 21.4006V22.8991C88.2518 22.9642 87.9062 22.9937 87.5604 22.9872C85.7288 22.9872 85.0146 22.2819 85.0146 20.4832V15.1672H83.6992V13.6597H85.0145V11.4648H86.8803Z" fill="#333333"/>
<path d="M89.5938 18.2965C89.5938 15.3784 91.2701 13.5447 93.8843 13.5447C96.5072 13.5447 98.1758 15.3783 98.1758 18.2965C98.1758 21.2226 96.516 23.0483 93.8843 23.0483C91.2535 23.0483 89.5938 21.2226 89.5938 18.2965ZM96.2837 18.2965C96.2837 16.2947 95.3889 15.1133 93.8843 15.1133C92.3796 15.1133 91.4858 16.3037 91.4858 18.2965C91.4858 20.3062 92.3796 21.4787 93.8843 21.4787C95.3889 21.4787 96.2837 20.3062 96.2837 18.2965H96.2837Z" fill="#333333"/>
<path d="M99.7109 13.6573H101.482V15.2358H101.525C101.645 14.7428 101.927 14.3071 102.323 14.002C102.72 13.6968 103.206 13.5408 103.702 13.5602C103.916 13.5594 104.129 13.5833 104.338 13.6312V15.4119C104.068 15.3273 103.786 15.2884 103.504 15.2969C103.234 15.2856 102.965 15.3344 102.715 15.4398C102.465 15.5452 102.241 15.7047 102.057 15.9074C101.873 16.1102 101.734 16.3513 101.65 16.6142C101.566 16.8771 101.538 17.1557 101.568 17.4307V22.9317H99.7109L99.7109 13.6573Z" fill="#333333"/>
<path d="M112.895 20.2092C112.645 21.8928 111.046 23.0483 109 23.0483C106.368 23.0483 104.734 21.2406 104.734 18.3405C104.734 15.4314 106.377 13.5447 108.921 13.5447C111.424 13.5447 112.998 15.3073 112.998 18.1194V18.7716H106.609V18.8867C106.579 19.228 106.621 19.5719 106.731 19.8954C106.841 20.2189 107.017 20.5148 107.247 20.7632C107.478 21.0117 107.757 21.2071 108.066 21.3365C108.376 21.4659 108.708 21.5263 109.042 21.5137C109.481 21.5558 109.922 21.4516 110.298 21.2166C110.674 20.9816 110.967 20.6282 111.132 20.2092L112.895 20.2092ZM106.618 17.4411H111.14C111.157 17.1342 111.112 16.8271 111.007 16.5391C110.902 16.251 110.741 15.9882 110.533 15.7672C110.324 15.5461 110.074 15.3716 109.796 15.2546C109.519 15.1376 109.221 15.0807 108.921 15.0873C108.619 15.0854 108.319 15.145 108.039 15.2625C107.76 15.3801 107.505 15.5532 107.291 15.7721C107.077 15.9909 106.907 16.2511 106.792 16.5376C106.676 16.824 106.617 17.1311 106.618 17.4412V17.4411Z" fill="#333333"/>
<path d="M26.0341 16.1996C26.045 15.3564 26.2702 14.5295 26.6888 13.7961C27.1075 13.0626 27.7058 12.4464 28.4283 12.0047C27.9694 11.3529 27.3639 10.8165 26.66 10.4381C25.956 10.0596 25.1731 9.84964 24.3733 9.82476C22.6672 9.64668 21.0132 10.84 20.1438 10.84C19.2576 10.84 17.919 9.84244 16.4776 9.87193C15.5452 9.90189 14.6366 10.1715 13.8401 10.6545C13.0437 11.1375 12.3867 11.8174 11.9331 12.628C9.96814 16.011 11.4338 20.9828 13.3161 23.7174C14.2578 25.0564 15.3584 26.5521 16.7985 26.4991C18.2078 26.441 18.7341 25.6055 20.4352 25.6055C22.1205 25.6055 22.6143 26.4991 24.0837 26.4654C25.5958 26.441 26.5486 25.1204 27.4573 23.7687C28.1339 22.8146 28.6546 21.7601 29 20.6442C28.1215 20.2747 27.3717 19.6562 26.8443 18.8659C26.3169 18.0755 26.0351 17.1482 26.0341 16.1996Z" fill="#666666"/>
<path d="M23.2613 8.02666C24.0858 7.04239 24.492 5.77728 24.3936 4.5C23.1339 4.63156 21.9704 5.23024 21.1347 6.17674C20.7261 6.63913 20.4132 7.17707 20.2138 7.75979C20.0144 8.34252 19.9325 8.95861 19.9727 9.57284C20.6028 9.57929 21.2261 9.44349 21.7957 9.17566C22.3654 8.90784 22.8665 8.51498 23.2613 8.02666Z" fill="#666666"/>
</svg>
