<svg width="80" height="32" viewBox="0 0 80 32" fill="none" xmlns="http://www.w3.org/2000/svg">
<path fill-rule="evenodd" clip-rule="evenodd" d="M12.0675 25.8679C11.9066 25.8753 11.7447 25.879 11.5819 25.879C5.85169 25.879 1.20642 21.2338 1.20642 15.5035C1.20642 9.77332 5.85169 5.12805 11.5819 5.12805C11.7447 5.12805 11.9066 5.1318 12.0675 5.13922V5.13363C18.5254 5.13363 23.7606 10.3031 23.7606 16.6799C23.7606 23.0567 18.5254 28.2261 12.0675 28.2261V25.8679Z" fill="#EF4C36"/>
<path d="M45.0616 11.6739L33.9191 12.2084V8.79371L45.0616 8.25916V11.6739Z" fill="#111111"/>
<path d="M41.641 26.0965V9.94963L45.0615 9.79358V25.9412L41.641 26.0965Z" fill="#111111"/>
<path d="M49.2977 26.6289V6.65525L52.7189 6.49988V26.4729L49.2977 26.6289Z" fill="#111111"/>
<path d="M45.0612 18.551L34.9471 19.039V15.6242L45.0612 15.1362V18.551Z" fill="#111111"/>
<path d="M51.6309 17.0607L46.0062 17.3633V13.9485L51.6309 13.646V17.0607Z" fill="#111111"/>
<path d="M67.663 10.637L54.849 11.2199V7.91876L67.663 7.33582V10.637Z" fill="#111111"/>
<path d="M63.4547 11.6135L56.7339 18.6288L54.3955 16.4009L61.1164 9.38562L63.4547 11.6135Z" fill="#111111"/>
<path d="M65.6853 17.9968L59.1891 11.8074L61.5275 9.36707L68.0236 15.5565L65.6853 17.9968Z" fill="#111111"/>
<path d="M72.2084 22.2738L57.1276 22.96V19.6588L72.2084 18.9727V22.2738Z" fill="#111111"/>
<path d="M68.9014 26.6773V19.9797L72.2081 19.8295V26.5271L68.9014 26.6773Z" fill="#111111"/>
<path d="M68.8358 18.2668V6.50067L72.1425 6.35046V18.116L68.8358 18.2668Z" fill="#111111"/>
<path d="M74.37 13.7826L70.48 13.9599V10.6581L74.37 10.4814V13.7826Z" fill="#111111"/>
</svg>
