<svg width="124" height="32" viewBox="0 0 124 32" fill="none" xmlns="http://www.w3.org/2000/svg">
<path fill-rule="evenodd" clip-rule="evenodd" d="M58.8292 13.7135C56.4933 13.7135 54.5999 15.4979 54.5999 17.9592C54.5999 20.398 56.5057 22.2048 58.8292 22.2048C61.1651 22.2048 63.0585 20.408 63.0585 17.9592C63.0585 15.4979 61.1651 13.7135 58.8292 13.7135ZM58.8292 20.5225C57.5513 20.5225 56.4513 19.4573 56.4513 17.9492C56.4513 16.4187 57.5537 15.3759 58.8292 15.3759C60.1071 15.3759 61.2071 16.4187 61.2071 17.9492C61.2095 19.4673 60.1071 20.5225 58.8292 20.5225ZM49.6019 13.7135C47.266 13.7135 45.3726 15.4979 45.3726 17.9592C45.3726 20.398 47.2783 22.2048 49.6019 22.2048C51.9377 22.2048 53.8312 20.408 53.8312 17.9592C53.8312 15.4979 51.9353 13.7135 49.6019 13.7135ZM49.6019 20.5225C48.3239 20.5225 47.224 19.4573 47.224 17.9492C47.224 16.4187 48.3264 15.3759 49.6019 15.3759C50.8798 15.3759 51.9798 16.4187 51.9798 17.9492C51.9798 19.4673 50.8798 20.5225 49.6019 20.5225ZM38.622 15.0101V16.8069H42.9057C42.7747 17.8148 42.4435 18.5589 41.9367 19.0691C41.3089 19.7012 40.3399 20.3881 38.6319 20.3881C35.9994 20.3881 33.9404 18.2478 33.9404 15.5974C33.9404 12.947 35.9994 10.8068 38.6319 10.8068C40.0532 10.8068 41.0889 11.3717 41.8576 12.0934L43.1232 10.8192C42.0554 9.7889 40.6341 9 38.6418 9C35.0305 9 32 11.9615 32 15.5875C32 19.2234 35.028 22.1749 38.6418 22.1749C40.5921 22.1749 42.0554 21.5329 43.2122 20.3234C44.3913 19.1363 44.7645 17.4614 44.7645 16.1101C44.7645 15.6895 44.7324 15.3112 44.6656 14.9902H38.6195C38.622 14.9877 38.622 15.0101 38.622 15.0101ZM83.5326 16.4087C83.1791 15.4556 82.1113 13.7036 79.9213 13.7036C77.751 13.7036 75.9466 15.4232 75.9466 17.9492C75.9466 20.3333 77.7312 22.1948 80.1314 22.1948C82.0594 22.1948 83.1816 21.0078 83.6438 20.3109L82.2126 19.3453C81.738 20.0546 81.0781 20.52 80.1413 20.52C79.1945 20.52 78.5321 20.087 78.0921 19.2333L83.7303 16.8816C83.7303 16.8841 83.5326 16.4087 83.5326 16.4087ZM77.7831 17.8273C77.7386 16.1872 79.0487 15.3535 79.9855 15.3535C80.7246 15.3535 81.3401 15.7194 81.5502 16.2519L77.7831 17.8273ZM73.2028 21.941H75.0542V9.46787H73.2028V21.941ZM70.1625 14.6567H70.0958C69.678 14.1565 68.8846 13.7036 67.8711 13.7036C65.7676 13.7036 63.8297 15.5676 63.8297 17.9616C63.8297 20.3458 65.7577 22.1874 67.8711 22.1874C68.8722 22.1874 69.678 21.732 70.0958 21.2218H70.1625V21.8315C70.1625 23.4516 69.3023 24.3251 67.9156 24.3251C66.781 24.3251 66.0766 23.5039 65.7898 22.817L64.1807 23.4939C64.6429 24.6138 65.8764 26 67.9131 26C70.0834 26 71.9224 24.7134 71.9224 21.5752V13.9574H70.1724V14.6567C70.1749 14.6567 70.1625 14.6567 70.1625 14.6567ZM68.0367 20.5225C66.7588 20.5225 65.691 19.4474 65.691 17.9616C65.691 16.4635 66.7588 15.3784 68.0367 15.3784C69.3023 15.3784 70.2836 16.4759 70.2836 17.9616C70.296 19.4474 69.3048 20.5225 68.0367 20.5225ZM92.2013 9.46787H87.7742V21.941H89.6256V17.2175H92.2038C94.2529 17.2175 96.2674 15.7219 96.2674 13.3477C96.2674 10.9735 94.2603 9.46787 92.2013 9.46787ZM92.2557 15.4755H89.6232V11.195H92.2557C93.6423 11.195 94.4259 12.3472 94.4259 13.3352C94.4259 14.3133 93.6325 15.4755 92.2557 15.4755ZM103.688 13.6911C102.343 13.6911 100.956 14.2909 100.383 15.5974L102.024 16.2843C102.378 15.5974 103.025 15.3635 103.71 15.3635C104.669 15.3635 105.638 15.9409 105.66 16.9712V17.1031C105.329 16.9139 104.602 16.6252 103.732 16.6252C101.96 16.6252 100.163 17.6008 100.163 19.43C100.163 21.1048 101.616 22.1799 103.236 22.1799C104.479 22.1799 105.164 21.615 105.591 20.9605H105.658V21.9261H107.443V17.1479C107.443 14.923 105.801 13.6911 103.688 13.6911ZM103.455 20.5225C102.85 20.5225 102.002 20.2238 102.002 19.4573C102.002 18.4917 103.06 18.1259 103.962 18.1259C104.778 18.1259 105.164 18.3026 105.648 18.5465C105.515 19.6664 104.575 20.5125 103.455 20.5225ZM113.953 13.9574L111.828 19.3677H111.761L109.558 13.9574H107.566L110.871 21.5204L108.987 25.7238H110.915L116 13.9574H113.953ZM97.2883 21.941H99.1397V9.46787H97.2883V21.941Z" fill="#333333"/>
<path fill-rule="evenodd" clip-rule="evenodd" d="M8.35594 6.30626C8.13032 6.54863 8 6.91897 8 7.40371V24.5965C8 25.0812 8.13032 25.4515 8.36372 25.6842L8.42401 25.7366L18.0868 16.1038V15.8886L8.41623 6.25391L8.35594 6.30626Z" fill="url(#paint0_linear_10303_3088)"/>
<path fill-rule="evenodd" clip-rule="evenodd" d="M21.2994 19.3225L18.0765 16.1096V15.8847L21.2994 12.6719L21.3694 12.7145L25.1816 14.8745C26.2728 15.4872 26.2728 16.4994 25.1816 17.1198L21.3694 19.2798L21.2994 19.3225Z" fill="url(#paint1_linear_10303_3088)"/>
<path fill-rule="evenodd" clip-rule="evenodd" d="M21.3701 19.2807L18.0772 15.998L8.35413 25.6909C8.71006 26.0709 9.30718 26.1136 9.97432 25.7433L21.3701 19.2807Z" fill="url(#paint2_linear_10303_3088)"/>
<path fill-rule="evenodd" clip-rule="evenodd" d="M21.3701 12.717L9.97432 6.26411C9.30718 5.88407 8.70812 5.93642 8.35413 6.31646L18.0772 15.9996L21.3701 12.717Z" fill="url(#paint3_linear_10303_3088)"/>
<path opacity="0.2" fill-rule="evenodd" clip-rule="evenodd" d="M21.3003 19.2109L9.9822 25.6211C9.35007 25.9837 8.78601 25.9585 8.4223 25.6289L8.362 25.689L8.4223 25.7413C8.78601 26.069 9.35007 26.0962 9.9822 25.7336L21.3781 19.2807L21.3003 19.2109Z" fill="black"/>
<path opacity="0.12" fill-rule="evenodd" clip-rule="evenodd" d="M25.183 17.0082L21.291 19.2109L21.361 19.2807L25.1733 17.1207C25.7198 16.8105 25.9882 16.4033 25.9882 15.998C25.9551 16.3703 25.677 16.7232 25.183 17.0082Z" fill="black"/>
<path opacity="0.25" fill-rule="evenodd" clip-rule="evenodd" d="M9.97613 6.37605L25.1842 14.9889C25.6782 15.2662 25.9563 15.6288 25.9991 15.9991C25.9991 15.5939 25.7307 15.1867 25.1842 14.8764L9.97613 6.26359C8.88498 5.64118 8 6.16082 8 7.40369V7.51615C8 6.27134 8.88498 5.7614 9.97613 6.37605Z" fill="#333333"/>
<defs>
<linearGradient id="paint0_linear_10303_3088" x1="17.2201" y1="7.21822" x2="1.74834" y2="11.3536" gradientUnits="userSpaceOnUse">
<stop stop-color="#00A0FF"/>
<stop offset="0.00657" stop-color="#00A1FF"/>
<stop offset="0.2601" stop-color="#00BEFF"/>
<stop offset="0.5122" stop-color="#00D2FF"/>
<stop offset="0.7604" stop-color="#00DFFF"/>
<stop offset="1" stop-color="#00E3FF"/>
</linearGradient>
<linearGradient id="paint1_linear_10303_3088" x1="26.6046" y1="15.9972" x2="7.73217" y2="15.9972" gradientUnits="userSpaceOnUse">
<stop stop-color="#FFE000"/>
<stop offset="0.4087" stop-color="#FFBD00"/>
<stop offset="0.7754" stop-color="#FFA500"/>
<stop offset="1" stop-color="#FF9C00"/>
</linearGradient>
<linearGradient id="paint2_linear_10303_3088" x1="19.5796" y1="17.7843" x2="7.21096" y2="38.6667" gradientUnits="userSpaceOnUse">
<stop stop-color="#FF3A44"/>
<stop offset="1" stop-color="#C31162"/>
</linearGradient>
<linearGradient id="paint3_linear_10303_3088" x1="5.90574" y1="0.588182" x2="11.4239" y2="9.91457" gradientUnits="userSpaceOnUse">
<stop stop-color="#32A071"/>
<stop offset="0.0685" stop-color="#2DA771"/>
<stop offset="0.4762" stop-color="#15CF74"/>
<stop offset="0.8009" stop-color="#06E775"/>
<stop offset="1" stop-color="#00F076"/>
</linearGradient>
</defs>
</svg>
