<svg width="100" height="40" viewBox="0 0 100 40" fill="none" xmlns="http://www.w3.org/2000/svg">
<path fill-rule="evenodd" clip-rule="evenodd" d="M15.0843 32.3349C14.8832 32.3442 14.6808 32.3489 14.4774 32.3489C7.31464 32.3489 1.50806 26.5423 1.50806 19.3795C1.50806 12.2167 7.31464 6.41016 14.4774 6.41016C14.6808 6.41016 14.8832 6.41484 15.0843 6.4241V6.41712C23.1566 6.41712 29.7006 12.8789 29.7006 20.8499C29.7006 28.8209 23.1566 35.2827 15.0843 35.2827V32.3349Z" fill="#EF4C36"/>
<path d="M56.327 14.5926L42.3989 15.2608V10.9924L56.327 10.3242V14.5926Z" fill="#111111"/>
<path d="M52.0513 32.6211V12.4375L56.3269 12.2424V32.4269L52.0513 32.6211Z" fill="#111111"/>
<path d="M61.6222 33.2866V8.31946L65.8986 8.12524V33.0915L61.6222 33.2866Z" fill="#111111"/>
<path d="M56.3266 23.1891L43.684 23.7991V19.5307L56.3266 18.9207V23.1891Z" fill="#111111"/>
<path d="M64.5387 21.3263L57.5078 21.7044V17.436L64.5387 17.0579V21.3263Z" fill="#111111"/>
<path d="M84.5787 13.2961L68.5612 14.0248V9.89836L84.5787 9.16968V13.2961Z" fill="#111111"/>
<path d="M79.3184 14.5168L70.9174 23.2859L67.9944 20.501L76.3955 11.7319L79.3184 14.5168Z" fill="#111111"/>
<path d="M82.1067 22.4959L73.9865 14.7591L76.9094 11.7087L85.0296 19.4456L82.1067 22.4959Z" fill="#111111"/>
<path d="M90.2605 27.8425L71.4094 28.7002V24.5738L90.2605 23.7161V27.8425Z" fill="#111111"/>
<path d="M86.1267 33.3469V24.9749L90.2601 24.7871V33.1591L86.1267 33.3469Z" fill="#111111"/>
<path d="M86.0448 22.8337V8.12599L90.1782 7.93823V22.6451L86.0448 22.8337Z" fill="#111111"/>
<path d="M92.9625 17.2285L88.1 17.4502V13.3229L92.9625 13.1021V17.2285Z" fill="#111111"/>
</svg>
