<svg width="92" height="92" viewBox="0 0 92 92" fill="none" xmlns="http://www.w3.org/2000/svg">
<rect width="92" height="92" rx="46" fill="#FFA900"/>
<path d="M35.5737 21H56.427C57.8097 21 59.1357 21.5211 60.1134 22.4484C61.0911 23.3758 61.6404 24.6335 61.6404 25.945V45.725C61.6404 49.6595 59.9926 53.4329 57.0595 56.215C54.1264 58.9971 50.1483 60.56 46.0004 60.56C41.8524 60.56 37.8743 58.9971 34.9412 56.215C32.0081 53.4329 30.3604 49.6595 30.3604 45.725V25.945C30.3604 24.6335 30.9096 23.3758 31.8873 22.4484C32.865 21.5211 34.191 21 35.5737 21Z" fill="white"/>
<path d="M48.7602 51.36H43.2402V72.2133H48.7602V51.36Z" fill="white"/>
<path d="M38.2886 68.38H53.7126C55.2365 68.5185 56.6254 69.076 57.585 69.9346C58.0746 70.3727 58.4329 70.8715 58.647 71.4005C58.9931 72.2554 58.165 72.98 57.2427 72.98H34.7585C33.8362 72.98 33.0081 72.2554 33.3542 71.4005C33.5684 70.8715 33.9267 70.3727 34.4162 69.9346C35.3759 69.076 36.7647 68.5185 38.2886 68.38Z" fill="white"/>
<path d="M66.24 28.36H57.96V46.76H61.64C66.721 46.76 70.84 42.641 70.84 37.56V32.96C70.84 30.4195 68.7805 28.36 66.24 28.36Z" stroke="white" stroke-width="5.52"/>
<path d="M25.76 28.36H34.04V46.76H30.36C25.279 46.76 21.16 42.641 21.16 37.56V32.96C21.16 30.4195 23.2195 28.36 25.76 28.36Z" stroke="white" stroke-width="5.52"/>
</svg>
