<svg width="92" height="92" viewBox="0 0 92 92" fill="none" xmlns="http://www.w3.org/2000/svg">
<rect width="92" height="92" rx="46" fill="#988172"/>
<path d="M19.2827 35.2501C19.2827 33.9656 20.324 32.9243 21.6085 32.9243H69.6742C70.9586 32.9243 71.9999 33.9656 71.9999 35.2501V39.1263C71.9999 39.5545 71.6528 39.9016 71.2247 39.9016H20.058C19.6298 39.9016 19.2827 39.5545 19.2827 39.1263V35.2501Z" fill="white"/>
<path fill-rule="evenodd" clip-rule="evenodd" d="M43.3156 43.7778H23.159C22.7309 43.7778 22.3838 44.1249 22.3838 44.5531V63.1592C22.3838 66.1563 24.8134 68.5859 27.8106 68.5859H43.3156L43.3156 43.7778ZM47.9671 68.5859H63.4722C66.4693 68.5859 68.899 66.1563 68.899 63.1592V44.5531C68.899 44.1249 68.5519 43.7778 68.1237 43.7778H47.9671V68.5859Z" fill="white"/>
<path d="M36.8237 24.683C42.0585 23.0739 44.8448 30.0593 45.5836 33.7531C38.664 39.1263 34.7672 37.0728 33.6825 34.3718C32.5484 31.8127 30.9699 26.4824 36.8237 24.683Z" stroke="white" stroke-width="4.34268"/>
<path d="M54.9422 24.683C49.7075 23.0739 46.9211 30.0593 46.1823 33.7531C53.102 39.1264 56.9987 37.0729 58.0834 34.3719C59.2175 31.8127 60.1769 26.2921 54.9422 24.683Z" stroke="white" stroke-width="4.34268"/>
</svg>
