<svg width="92" height="92" viewBox="0 0 92 92" fill="none" xmlns="http://www.w3.org/2000/svg">
<rect width="92" height="92" rx="46" fill="#B377FF"/>
<path d="M54.2803 34.12L54.2803 28.14C54.2803 23.313 50.3672 19.4 45.5403 19.4V19.4C40.7133 19.4 36.8003 23.313 36.8003 28.14L36.8003 34.12" stroke="white" stroke-width="5.66275" stroke-linecap="square"/>
<path fill-rule="evenodd" clip-rule="evenodd" d="M25.3329 35.8482C25.4295 34.3587 26.6657 33.2 28.1584 33.2H62.9219C64.4145 33.2 65.6508 34.3587 65.7473 35.8482L67.8847 68.8254C67.9905 70.4578 66.6951 71.84 65.0593 71.84H26.021C24.3852 71.84 23.0897 70.4578 23.1955 68.8254L25.3329 35.8482ZM39.5601 40.56C39.5601 42.0843 38.3244 43.32 36.8001 43.32C35.2758 43.32 34.0401 42.0843 34.0401 40.56C34.0401 39.0356 35.2758 37.8 36.8001 37.8C38.3244 37.8 39.5601 39.0356 39.5601 40.56ZM54.2801 43.32C55.8044 43.32 57.0401 42.0843 57.0401 40.56C57.0401 39.0356 55.8044 37.8 54.2801 37.8C52.7558 37.8 51.5201 39.0356 51.5201 40.56C51.5201 42.0843 52.7558 43.32 54.2801 43.32Z" fill="white"/>
</svg>
