<svg width="60" height="60" viewBox="0 0 60 60" fill="none" xmlns="http://www.w3.org/2000/svg">
<rect width="60" height="60" rx="30" fill="#5790FF"/>
<path d="M18.9167 23.3333L21.2691 23.3333C21.7188 23.3333 22.0833 23.6978 22.0833 24.1475V43.1023C22.0833 43.552 21.7188 43.9166 21.2691 43.9166H18.9167C18.0768 43.9166 17.2714 43.583 16.6775 42.9891C16.0836 42.3952 15.75 41.5898 15.75 40.7499V26.4999C15.75 25.6601 16.0836 24.8546 16.6775 24.2607C17.2714 23.6669 18.0768 23.3333 18.9167 23.3333Z" fill="white"/>
<path fill-rule="evenodd" clip-rule="evenodd" d="M34.9242 12.25H34.75C34.2449 12.2498 33.7471 12.3704 33.2982 12.6018C32.8492 12.8332 32.4621 13.1686 32.1692 13.58L25.25 23.3333V42.6953C25.25 43.3698 25.7969 43.9167 26.4714 43.9167H37.619C38.5962 43.9188 39.545 43.5548 40.3098 42.8845C41.0746 42.2142 41.61 41.2773 41.8282 40.2275L44.1412 29.1442C44.2857 28.4488 44.2863 27.7265 44.1429 27.0309C43.9995 26.3353 43.7158 25.6842 43.3128 25.1259C42.9098 24.5677 42.3979 24.1167 41.8151 23.8063C41.2323 23.496 40.5936 23.3343 39.9463 23.3333L34.9443 23.3333C34.194 23.0716 34.026 22.4005 34.26 21.8011L37.505 17.2533C37.8423 16.7796 38.0426 16.2222 38.084 15.6421C38.1254 15.0621 38.0063 14.4818 37.7397 13.965C37.4731 13.4482 37.0694 13.0147 36.5727 12.7122C36.0761 12.4097 35.5057 12.2498 34.9242 12.25Z" fill="white"/>
</svg>
