<svg width="60" height="60" viewBox="0 0 60 60" fill="none" xmlns="http://www.w3.org/2000/svg">
<rect width="60" height="60" rx="30" fill="#00ADBF"/>
<path fill-rule="evenodd" clip-rule="evenodd" d="M20.6316 17C18.3644 17 16.5264 18.838 16.5264 21.1053V39.5789C16.5264 41.4683 18.058 43 19.9474 43H43.797C44.6068 43 45.2632 42.3436 45.2632 41.5338V23.9399C45.2632 23.1301 44.6068 22.4737 43.797 22.4737H20.6316C19.8759 22.4737 19.2632 21.861 19.2632 21.1053C19.2632 20.3495 19.8759 19.7368 20.6316 19.7368H38.079C38.8348 19.7368 39.4474 19.1242 39.4474 18.3684C39.4474 17.6127 38.8348 17 38.079 17H20.6316ZM39.4474 34.7894C40.3921 34.7894 41.158 34.0236 41.158 33.0789C41.158 32.1342 40.3921 31.3684 39.4474 31.3684C38.5027 31.3684 37.7369 32.1342 37.7369 33.0789C37.7369 34.0236 38.5027 34.7894 39.4474 34.7894Z" fill="white"/>
</svg>
