<svg width="60" height="60" viewBox="0 0 60 60" fill="none" xmlns="http://www.w3.org/2000/svg">
<rect width="60" height="60" rx="30" fill="#FF7878"/>
<path d="M23.9288 13.6233C24.7047 12.3319 26.3805 11.9142 27.6718 12.6901L30.2747 14.2541L32.9305 12.7819C34.2481 12.0516 35.9083 12.5276 36.6387 13.8452L38.1108 16.5011L41.147 16.554C42.6532 16.5803 43.853 17.8226 43.8267 19.3289L43.7737 22.365L46.3765 23.929C47.6678 24.7049 48.0857 26.3807 47.3098 27.6719L45.7458 30.2749L47.218 32.9308C47.9483 34.2483 47.4723 35.9085 46.1547 36.6389L43.4988 38.111L43.4458 41.1472C43.4195 42.6534 42.1772 43.8532 40.6709 43.8269L37.6347 43.7739L36.0708 46.3767C35.2949 47.6681 33.6191 48.0859 32.3278 47.31L29.725 45.7461L27.0691 47.2183C25.7515 47.9486 24.0913 47.4725 23.361 46.155L21.8887 43.499L18.8526 43.446C17.3464 43.4198 16.1467 42.1774 16.173 40.6711L16.2259 37.635L13.623 36.071C12.3318 35.2951 11.9139 33.6194 12.6898 32.3281L14.2538 29.7252L12.7816 27.0694C12.0513 25.7517 12.5273 24.0916 13.8449 23.3612L16.5008 21.889L16.5538 18.8529C16.5801 17.3466 17.8224 16.1469 19.3287 16.1732L22.3648 16.2262L23.9288 13.6233Z" fill="white"/>
<path d="M39.0052 34.5139C39.0052 36.8029 37.3471 38.3843 35.0879 38.3843C32.8287 38.3843 31.1706 36.8029 31.1706 34.5139C31.1706 32.225 32.8287 30.6436 35.0879 30.6436C37.3471 30.6436 39.0052 32.225 39.0052 34.5139ZM33.5334 22.445H36.3107L27.0875 38.1762H24.2273L33.5334 22.445ZM29.4503 26.1073C29.4503 28.3962 27.7922 29.9777 25.533 29.9777C23.2738 29.9777 21.6157 28.3962 21.6157 26.1073C21.6157 23.8184 23.2738 22.2369 25.533 22.2369C27.7922 22.2369 29.4503 23.8184 29.4503 26.1073ZM36.4351 34.5139C36.4351 33.4735 35.834 32.8492 35.0879 32.8492C34.3417 32.8492 33.7407 33.4735 33.7407 34.5139C33.7407 35.5543 34.3417 36.1786 35.0879 36.1786C35.834 36.1786 36.4351 35.5543 36.4351 34.5139ZM26.8802 26.1073C26.8802 25.0669 26.2792 24.4426 25.533 24.4426C24.7869 24.4426 24.1858 25.0669 24.1858 26.1073C24.1858 27.1477 24.7869 27.772 25.533 27.772C26.2792 27.772 26.8802 27.1477 26.8802 26.1073Z" fill="#FF7878"/>
</svg>
