<svg width="64" height="64" viewBox="0 0 64 64" fill="none" xmlns="http://www.w3.org/2000/svg">
<rect width="64" height="64" rx="32" fill="#F6F1FE"/>
<path fill-rule="evenodd" clip-rule="evenodd" d="M31.5088 34.0447V39.3037C31.5088 42.2082 33.8634 44.5627 36.7678 44.5627C39.5578 44.5627 41.8403 42.3902 42.016 39.6446H42.2612C42.9741 39.6446 43.6577 39.3496 44.1618 38.8245C44.6659 38.2994 44.9491 37.5872 44.9491 36.8446C44.9491 36.102 44.6659 35.3899 44.1618 34.8648C43.6577 34.3397 42.9741 34.0447 42.2612 34.0447H31.5088ZM42.0269 35.759V37.9303H42.2612C42.4962 37.9303 42.7366 37.8336 42.9252 37.6373C43.1159 37.4385 43.2348 37.1546 43.2348 36.8446C43.2348 36.5346 43.1159 36.2507 42.9252 36.052C42.7366 35.8556 42.4962 35.759 42.2612 35.759H42.0269Z" fill="#AF71FF"/>
<path d="M29.9137 19.6936L19.8422 28.0865C19.021 28.7708 19.5049 30.1074 20.5738 30.1074H21.8266V41.1308H29.9567C29.8305 40.5986 29.7637 40.0434 29.7637 39.4725V32.3121H39.4641V30.1074H40.7169C41.7858 30.1074 42.2697 28.7708 41.4485 28.0865L31.377 19.6936C30.9532 19.3404 30.3376 19.3404 29.9137 19.6936Z" fill="#AF71FF"/>
</svg>
