<svg width="64" height="64" viewBox="0 0 64 64" fill="none" xmlns="http://www.w3.org/2000/svg">
<rect width="64" height="64" rx="32" fill="#F6F3F2"/>
<path d="M28.8776 27.3599C28.4394 27.781 28.0196 28.2338 27.6222 28.7165C25.558 31.2241 24.4046 34.1693 24.2733 36.9549C24.2407 37.6478 24.2719 38.338 24.3709 39.0118C22.0931 37.1612 20.5713 33.8099 20.5713 29.9829C20.5713 24.154 24.1015 19.4287 28.4563 19.4287C31.1154 19.4287 33.467 21.1905 34.8952 23.8897C33.3957 24.2813 31.912 24.9888 30.5401 25.9741C30.4617 25.5383 30.339 25.1206 30.2069 24.7568C29.9878 24.1538 29.7032 23.5917 29.4548 23.2809C29.1593 22.9111 28.6199 22.8509 28.2501 23.1464C27.8803 23.4419 27.8201 23.9813 28.1156 24.3511C28.1958 24.4514 28.4039 24.8144 28.5956 25.342C28.782 25.8551 28.9137 26.4189 28.9137 26.8995C28.9137 27.0521 28.9008 27.2061 28.8776 27.3599Z" fill="#B08A7A"/>
<path fill-rule="evenodd" clip-rule="evenodd" d="M28.3262 42.9659C31.6884 45.7335 37.417 44.329 41.1216 39.8288C44.8262 35.3285 45.1038 29.4367 41.7417 26.669C38.3796 23.9013 32.6509 25.3059 28.9463 29.8061C25.2417 34.3064 24.9641 40.1982 28.3262 42.9659ZM40.0643 30.2777C40.0712 29.8043 39.693 29.415 39.2197 29.4082C38.7464 29.4013 38.3571 29.7794 38.3502 30.2528C38.3483 30.3812 38.2783 30.7937 38.091 31.3229C37.9087 31.8375 37.6521 32.3565 37.3467 32.7275C36.7197 33.4891 35.6354 33.9549 34.9598 34.2346C34.9126 34.2541 34.8521 34.2771 34.7804 34.3043C34.2065 34.5219 32.9122 35.0129 31.9053 36.236C30.7911 37.5894 30.5211 39.0964 30.5112 39.7754C30.5043 40.2487 30.8825 40.638 31.3558 40.6449C31.8291 40.6518 32.2184 40.2736 32.2253 39.8003C32.2307 39.4268 32.4101 38.3201 33.2288 37.3255C33.9266 36.4779 34.7856 36.1434 35.3751 35.914C35.4615 35.8803 35.5422 35.8489 35.6157 35.8185L35.655 35.8022C36.293 35.5383 37.7488 34.9363 38.6702 33.817C39.1487 33.2358 39.4876 32.5144 39.7069 31.8951C39.9211 31.2903 40.0585 30.6755 40.0643 30.2777Z" fill="#B08A7A"/>
</svg>
