<svg width="64" height="64" viewBox="0 0 64 64" fill="none" xmlns="http://www.w3.org/2000/svg">
<rect width="64" height="64" rx="32" fill="#E9F6F8"/>
<path d="M24.273 31.2371C23.7481 29.9125 22.2801 29.277 20.994 29.8176C19.708 30.3582 19.091 31.8702 19.6159 33.1948L21.9919 39.1906C22.0135 39.2451 22.0367 39.2985 22.0614 39.3507C22.3881 40.3908 23.3362 41.1431 24.4549 41.1431H39.5454C40.6641 41.1431 41.6122 40.3909 41.9389 39.3507C41.9636 39.2985 41.9868 39.2451 42.0084 39.1906L44.3844 33.1948C44.9093 31.8702 44.2923 30.3582 43.0062 29.8176C41.7202 29.277 40.2521 29.9125 39.7272 31.2371L37.8547 35.9623H26.1456L24.273 31.2371Z" fill="#00ADBF"/>
<path d="M25.143 41.1431H27.4287V43.4288H25.143V41.1431Z" fill="#00ADBF"/>
<path d="M36.5716 41.1431H38.8573V43.4288H36.5716V41.1431Z" fill="#00ADBF"/>
<path d="M24.0001 25.1427C24.0001 22.618 25.791 20.5713 28.0001 20.5713H36.0001C38.2093 20.5713 40.0001 22.618 40.0001 25.1427C40.0001 26.7037 39.0991 28.1045 38.287 29.4376C38.0661 29.8003 37.8765 30.1961 37.7243 30.6223L36.4252 34.2601C36.2855 34.2769 36.1437 34.2856 36.0001 34.2856H28.0001C27.8566 34.2856 27.7147 34.2769 27.5751 34.2601L26.2759 30.6223C26.1237 30.1961 25.9341 29.8003 25.7132 29.4376C24.9012 28.1045 24.0001 26.7037 24.0001 25.1427Z" fill="#00ADBF"/>
</svg>
