<svg width="28" height="28" viewBox="0 0 28 28" fill="none" xmlns="http://www.w3.org/2000/svg">
<circle cx="14" cy="14" r="14" fill="#988172"/>
<path fill-rule="evenodd" clip-rule="evenodd" d="M8.38438 20.9553C11.199 23.3178 15.9948 22.1189 19.0962 18.2775C22.1975 14.4362 22.4299 9.40698 19.6153 7.04452C16.8007 4.68205 12.0048 5.88093 8.9035 9.7223C5.80216 13.5637 5.56974 18.5929 8.38438 20.9553ZM18.211 10.1248C18.2168 9.72078 17.9002 9.38848 17.504 9.38261C17.1077 9.37674 16.7818 9.69952 16.776 10.1036C16.7745 10.2132 16.7159 10.5653 16.559 11.017C16.4065 11.4562 16.1917 11.8993 15.9359 12.216C15.4111 12.8661 14.5033 13.2636 13.9378 13.5024C13.8982 13.5191 13.8476 13.5387 13.7875 13.5619C13.3071 13.7477 12.2235 14.1667 11.3806 15.2108C10.4479 16.3661 10.2218 17.6524 10.2135 18.232C10.2078 18.636 10.5244 18.9683 10.9206 18.9742C11.3169 18.98 11.6428 18.6573 11.6485 18.2532C11.6531 17.9344 11.8032 16.9897 12.4886 16.1408C13.0727 15.4173 13.7919 15.1318 14.2854 14.9359C14.3577 14.9072 14.4253 14.8803 14.4868 14.8544L14.5197 14.8405C15.0539 14.6153 16.2726 14.1014 17.0439 13.146C17.4445 12.6499 17.7283 12.0341 17.9118 11.5054C18.0911 10.9892 18.2062 10.4644 18.211 10.1248Z" fill="white"/>
</svg>
