<svg width="28" height="28" viewBox="0 0 28 28" fill="none" xmlns="http://www.w3.org/2000/svg">
<circle cx="14" cy="14" r="14" fill="#B377FF"/>
<path fill-rule="evenodd" clip-rule="evenodd" d="M21.7768 12.8334C21.6057 12.8334 21.4346 12.779 21.2946 12.6624L20.9998 12.4281V20.6111H6.99978V12.4329L6.71129 12.6624C6.37684 12.9268 5.88684 12.8724 5.61462 12.5379C5.35018 12.2035 5.40462 11.7135 5.73906 11.4412L12.5446 6.02789C13.4002 5.35122 14.598 5.35122 15.4457 6.02789L22.2591 11.4412C22.5935 11.7057 22.648 12.1957 22.3835 12.5379C22.228 12.7324 22.0024 12.8334 21.7768 12.8334ZM15.1333 14.3889C15.796 14.3889 16.3333 14.9261 16.3333 15.5889V20.6111H11.6666V15.5889C11.6666 14.9261 12.2039 14.3889 12.8666 14.3889H15.1333Z" fill="white"/>
</svg>
