<svg width="28" height="28" viewBox="0 0 28 28" fill="none" xmlns="http://www.w3.org/2000/svg">
<circle cx="14" cy="14" r="14" fill="#5271AD"/>
<ellipse cx="14" cy="8.16675" rx="3.5" ry="3.5" fill="white"/>
<path d="M14.124 21.0001C13.9885 19.5427 14.3009 17.9043 15.1063 16.355C15.5164 15.5662 16.0188 14.8688 16.5809 14.2783C15.4358 14.0001 14.3495 14.0001 13.4167 14.0001C11.3253 14.0001 8.46258 14.0001 5.89522 17.1345C5.45015 17.6779 5.25 18.3757 5.25 19.0781V19.8335C5.25 20.4778 5.77233 21.0001 6.41667 21.0001H14.124Z" fill="white"/>
<path fill-rule="evenodd" clip-rule="evenodd" d="M22.5775 21.1111C20.9076 23.3062 18.3252 23.9913 16.8096 22.6413C15.2941 21.2913 15.4192 18.4175 17.0891 16.2224C18.7591 14.0274 21.3415 13.3423 22.857 14.6923C24.3726 16.0423 24.2475 18.9161 22.5775 21.1111ZM22.1667 16.3335C22.1667 16.0113 21.9055 15.7501 21.5833 15.7501C21.2612 15.7501 21 16.0113 21 16.3335C21 16.7664 20.7274 17.7539 19.6489 18.1134C17.9274 18.6872 17.5 20.2664 17.5 21.0001C17.5 21.3223 17.7612 21.5835 18.0833 21.5835C18.4055 21.5835 18.6667 21.3223 18.6667 21.0001C18.6667 20.5672 18.9393 19.5797 20.0178 19.2202C21.7393 18.6464 22.1667 17.0672 22.1667 16.3335Z" fill="white"/>
</svg>
