<svg width="28" height="28" viewBox="0 0 28 28" fill="none" xmlns="http://www.w3.org/2000/svg">
<circle cx="14" cy="14" r="14" fill="#F1BE5A"/>
<path fill-rule="evenodd" clip-rule="evenodd" d="M5.8335 11.9883C6.43717 11.7799 7.08526 11.6666 7.7598 11.6666C10.5266 11.6666 12.8485 13.5717 13.4853 16.1417C12.8816 16.3502 12.2336 16.4634 11.559 16.4634C8.79218 16.4634 6.47029 14.5583 5.8335 11.9883Z" fill="white"/>
<path fill-rule="evenodd" clip-rule="evenodd" d="M5.8335 17.4716C6.43717 17.2631 7.08526 17.1499 7.7598 17.1499C10.5266 17.1499 12.8485 19.055 13.4853 21.625C12.8816 21.8334 12.2336 21.9467 11.559 21.9467C8.79218 21.9467 6.47029 20.0416 5.8335 17.4716Z" fill="white"/>
<path fill-rule="evenodd" clip-rule="evenodd" d="M22.167 11.9883C21.5633 11.7799 20.9152 11.6666 20.2407 11.6666C17.4738 11.6666 15.152 13.5717 14.5152 16.1417C15.1188 16.3502 15.7669 16.4634 16.4415 16.4634C19.2083 16.4634 21.5302 14.5583 22.167 11.9883Z" fill="white"/>
<path fill-rule="evenodd" clip-rule="evenodd" d="M22.167 17.4716C21.5633 17.2631 20.9152 17.1499 20.2407 17.1499C17.4738 17.1499 15.152 19.055 14.5152 21.625C15.1188 21.8334 15.7669 21.9467 16.4415 21.9467C19.2083 21.9467 21.5302 20.0416 22.167 17.4716Z" fill="white"/>
<path d="M16.9557 6.38494C16.2299 5.64936 15.0542 5.64936 14.3284 6.38494L14 6.71778L13.6716 6.38494C12.9458 5.64936 11.7701 5.64936 11.0443 6.38494C10.3186 7.12052 10.3186 8.3121 11.0443 9.04768L12.358 10.379L14 12.0433L15.642 10.379L16.6273 9.38052L16.9557 9.04768C17.6814 8.3121 17.6814 7.12052 16.9557 6.38494Z" fill="white"/>
</svg>
