<svg width="28" height="28" viewBox="0 0 28 28" fill="none" xmlns="http://www.w3.org/2000/svg">
<circle cx="14" cy="14" r="14" fill="#666666"/>
<circle cx="13.9997" cy="14" r="6.41667" fill="white"/>
<path d="M12.2498 5.83325H15.7498L16.3332 10.4999H11.6665L12.2498 5.83325Z" fill="white"/>
<path d="M12.2498 22.1666H15.7498L16.3332 17.5H11.6665L12.2498 22.1666Z" fill="white"/>
<path fill-rule="evenodd" clip-rule="evenodd" d="M16.3332 14C16.3332 15.2886 15.2885 16.3333 13.9998 16.3333C12.7112 16.3333 11.6665 15.2886 11.6665 14C11.6665 12.7113 12.7112 11.6666 13.9998 11.6666C15.2885 11.6666 16.3332 12.7113 16.3332 14Z" fill="#666666"/>
<path d="M20.1979 8.40118L21.9479 11.4323L18.1981 14.2708L15.8648 10.2293L20.1979 8.40118Z" fill="white"/>
<path d="M6.05241 16.5678L7.80241 19.5989L12.1355 17.7707L9.80219 13.7293L6.05241 16.5678Z" fill="white"/>
<path fill-rule="evenodd" clip-rule="evenodd" d="M15.1666 16.0207C14.0506 16.6651 12.6236 16.2827 11.9792 15.1667C11.3349 14.0507 11.7173 12.6236 12.8333 11.9793C13.9493 11.335 15.3763 11.7173 16.0207 12.8333C16.665 13.9494 16.2826 15.3764 15.1666 16.0207Z" fill="#666666"/>
<path d="M6.05241 11.4321L7.80241 8.40099L12.1355 10.2291L9.80219 14.2706L6.05241 11.4321Z" fill="white"/>
<path d="M20.1979 19.5988L21.9479 16.5677L18.1981 13.7292L15.8648 17.7707L20.1979 19.5988Z" fill="white"/>
<path fill-rule="evenodd" clip-rule="evenodd" d="M15.167 11.9792C16.2831 12.6236 16.6654 14.0506 16.0211 15.1666C15.3768 16.2826 13.9497 16.665 12.8337 16.0207C11.7177 15.3763 11.3353 13.9493 11.9797 12.8333C12.624 11.7173 14.051 11.3349 15.167 11.9792Z" fill="#666666"/>
</svg>
